<?xml version="1.0" standalone="no"?>
<!DOCTYPE svg PUBLIC "-//W3C//DTD SVG 20010904//EN"
 "http://www.w3.org/TR/2001/REC-SVG-20010904/DTD/svg10.dtd">
<svg version="1.0" xmlns="http://www.w3.org/2000/svg"
 width="816.000000pt" height="531.000000pt" viewBox="0 0 816.000000 531.000000"
 preserveAspectRatio="xMidYMid meet">

<g transform="translate(0.000000,531.000000) scale(0.100000,-0.100000)"
fill="#000000" stroke="none">
<path d="M1590 2715 l0 -725 560 0 560 0 0 725 0 725 -560 0 -560 0 0 -725z
m1070 0 l0 -675 -510 0 -510 0 0 675 0 675 510 0 510 0 0 -675z"/>
<path d="M2092 3244 c36 -41 59 -113 59 -180 0 -102 -30 -152 -176 -298 -67
-66 -134 -142 -149 -167 -96 -166 15 -323 298 -425 l38 -14 -60 64 c-69 74
-86 115 -80 195 5 77 32 128 133 251 105 129 151 215 149 282 -2 60 -36 127
-97 195 -46 50 -151 139 -115 97z"/>
<path d="M2401 2885 c-2 -70 -34 -133 -130 -250 -45 -55 -93 -123 -106 -152
-30 -61 -33 -139 -9 -186 l17 -32 14 55 c17 69 29 87 120 182 100 105 127 165
127 278 0 58 -5 96 -16 120 l-16 35 -1 -50z"/>
<path d="M2461 2550 c-2 -52 -44 -117 -122 -189 -73 -66 -92 -94 -103 -150
l-6 -33 28 29 c15 16 62 53 105 82 123 82 162 167 118 256 l-19 40 -1 -35z"/>
<path d="M3361 2926 c-38 -46 25 -111 69 -71 22 20 26 55 8 73 -17 17 -63 15
-77 -2z"/>
<path d="M3780 2870 l0 -70 -26 10 c-64 25 -148 5 -196 -46 -118 -127 1 -325
172 -286 27 6 46 7 48 1 2 -5 24 -9 48 -9 l44 0 0 235 0 235 -45 0 -45 0 0
-70z m-61 -141 c33 -12 61 -52 61 -89 0 -33 -53 -80 -90 -80 -37 0 -90 47 -90
79 0 47 26 77 86 101 1 0 15 -5 33 -11z"/>
<path d="M4200 2870 l0 -70 -26 10 c-64 25 -148 5 -196 -46 -118 -127 1 -325
172 -286 27 6 46 7 48 1 2 -5 24 -9 48 -9 l44 0 0 235 0 235 -45 0 -45 0 0
-70z m-61 -141 c33 -12 61 -52 61 -89 0 -33 -53 -80 -90 -80 -37 0 -90 47 -90
79 0 47 26 77 86 101 1 0 15 -5 33 -11z"/>
<path d="M4350 2705 l0 -235 45 0 45 0 0 94 c0 114 9 141 54 163 29 14 39 14
66 3 47 -20 60 -55 60 -165 l0 -95 45 0 45 0 0 110 c0 76 -4 120 -14 138 -19
36 -65 78 -99 91 -36 14 -113 14 -138 1 -18 -10 -19 -7 -19 60 l0 70 -45 0
-45 0 0 -235z"/>
<path d="M5530 2880 l0 -60 -45 0 -45 0 0 -40 0 -40 45 0 45 0 0 -135 0 -135
51 0 50 0 -7 135 -7 135 52 0 51 0 0 39 0 40 -47 3 -48 3 -3 58 -3 57 -44 0
-45 0 0 -60z"/>
<path d="M5770 2705 l0 -235 45 0 45 0 0 104 c0 88 3 107 20 129 27 34 63 41
105 21 44 -20 55 -54 55 -165 l0 -89 46 0 46 0 -4 119 c-3 116 -4 120 -34 158
-47 58 -86 75 -166 70 l-68 -4 0 63 0 64 -45 0 -45 0 0 -235z"/>
<path d="M5327 2823 c-4 -3 -39 -6 -77 -5 l-70 2 0 -175 0 -175 45 0 45 0 0
110 c0 107 1 112 26 135 16 15 39 25 55 25 28 0 29 2 29 45 0 40 -2 45 -23 45
-13 0 -27 -3 -30 -7z"/>
<path d="M3029 2804 c-37 -15 -69 -58 -69 -92 0 -39 42 -73 125 -101 86 -29
106 -54 48 -59 -38 -4 -73 13 -73 33 0 11 -13 15 -50 15 -48 0 -50 -1 -50 -28
0 -74 129 -121 243 -88 61 18 87 44 87 87 0 48 -42 85 -130 114 -90 30 -108
55 -40 55 29 0 43 -5 52 -20 10 -15 24 -20 60 -20 42 0 48 3 48 21 0 35 -20
60 -63 80 -50 22 -137 24 -188 3z"/>
<path d="M3350 2645 l0 -175 45 0 45 0 0 175 0 175 -45 0 -45 0 0 -175z"/>
<path d="M4851 2798 c-56 -28 -84 -69 -89 -135 -5 -64 9 -103 54 -143 46 -40
106 -55 164 -42 27 6 46 7 48 1 2 -5 24 -9 48 -9 l44 0 0 174 0 174 -114 0
c-95 0 -121 -3 -155 -20z m128 -73 c56 -29 63 -106 14 -145 -59 -46 -143 -4
-143 71 0 30 17 57 48 73 34 19 46 19 81 1z"/>
<path d="M6272 2803 c-109 -53 -130 -197 -41 -277 50 -46 109 -62 169 -47 31
9 46 9 48 2 2 -6 24 -11 48 -11 l44 0 0 174 0 174 -118 1 c-87 0 -126 -4 -150
-16z m146 -95 c31 -30 30 -91 -3 -123 -55 -56 -145 -16 -145 63 0 80 87 116
148 60z"/>
</g>
</svg>
