<?xml version="1.0" standalone="no"?>
<!DOCTYPE svg PUBLIC "-//W3C//DTD SVG 20010904//EN"
 "http://www.w3.org/TR/2001/REC-SVG-20010904/DTD/svg10.dtd">
<svg version="1.0" xmlns="http://www.w3.org/2000/svg"
 width="1200.000000pt" height="900.000000pt" viewBox="0 0 1200.000000 900.000000"
 preserveAspectRatio="xMidYMid meet">

<g transform="translate(0.000000,900.000000) scale(0.100000,-0.100000)"
fill="#000000" stroke="none">
<path d="M0 4500 l0 -4500 6000 0 6000 0 0 4500 0 4500 -6000 0 -6000 0 0
-4500z m7008 2098 c19 -19 14 -56 -8 -68 -15 -8 -24 -6 -40 10 -24 24 -25 34
-4 54 19 19 36 20 52 4z m117 -288 c19 0 37 5 41 11 4 6 19 8 38 5 17 -3 59
-6 93 -6 33 1 64 -4 68 -10 3 -5 22 -10 41 -10 20 0 34 -5 34 -12 0 -10 3 -9
9 1 6 10 13 11 29 2 11 -6 32 -11 45 -11 14 0 30 -7 38 -16 8 -10 21 -13 36
-9 13 3 23 1 23 -4 0 -5 14 -14 30 -20 17 -5 30 -15 30 -21 0 -6 10 -8 25 -4
15 4 25 2 25 -5 0 -6 9 -11 19 -11 11 0 23 -9 26 -20 4 -13 15 -20 31 -20 14
0 32 -7 41 -15 8 -8 19 -13 24 -10 5 4 6 -1 3 -9 -4 -11 0 -16 14 -16 11 0 23
-6 25 -12 4 -10 8 -9 16 2 10 13 12 13 21 0 5 -8 10 -20 10 -25 0 -6 24 -34
53 -62 28 -28 57 -56 62 -62 30 -32 64 -59 93 -76 30 -18 44 -45 22 -45 -5 0
-10 -5 -10 -11 0 -5 5 -7 10 -4 6 3 10 -2 10 -11 0 -9 15 -32 34 -50 23 -22
30 -36 23 -43 -12 -12 8 -41 28 -41 8 0 11 -8 8 -20 -3 -11 0 -20 6 -20 6 0
11 -7 11 -15 0 -8 5 -15 10 -15 6 0 10 -13 10 -29 0 -16 7 -34 15 -41 9 -8 13
-21 9 -37 -5 -17 -3 -23 7 -21 9 2 13 -5 12 -19 -2 -13 0 -23 3 -23 16 0 46
24 54 43 6 16 9 18 9 5 1 -23 -91 -116 -123 -124 -25 -6 -26 -9 -26 -80 0 -63
-3 -75 -20 -84 -23 -12 -26 -48 -7 -72 6 -8 27 -20 45 -26 87 -32 92 -35 92
-56 0 -21 -3 -22 -52 -16 -29 4 -62 10 -73 14 -53 20 -107 52 -116 68 -26 48
-210 172 -294 198 -22 7 -49 20 -60 30 -11 10 -61 43 -111 74 -50 30 -97 63
-105 72 -9 11 -14 43 -14 92 0 62 -3 77 -19 86 -10 6 -33 21 -51 33 -29 19
-37 20 -67 10 -50 -18 -58 -26 -58 -56 0 -21 -9 -33 -37 -52 -21 -13 -46 -41
-56 -61 -21 -43 -29 -45 -82 -22 -40 16 -42 16 -60 -18 -12 -24 -20 -25 -70
-13 l-30 8 23 -19 22 -19 -21 -55 c-26 -66 -68 -181 -115 -309 -39 -109 -50
-126 -71 -110 -7 7 -16 9 -20 5 -7 -7 -10 -5 42 -33 59 -32 345 -143 367 -143
11 0 28 -5 39 -10 23 -13 25 -4 4 16 -11 11 -12 21 -4 42 6 15 33 88 60 162
28 74 61 163 75 198 13 34 24 69 24 78 0 12 6 15 25 10 38 -10 30 8 -11 23
-26 9 -34 17 -31 29 20 62 22 59 -32 77 -28 9 -53 20 -55 24 -3 4 11 20 30 35
20 15 36 26 38 24 1 -1 14 -22 28 -45 15 -22 89 -115 165 -205 76 -90 156
-186 177 -213 124 -157 237 -240 419 -304 l81 -28 -3 -49 c-1 -27 -6 -67 -11
-89 -5 -22 -10 -71 -10 -110 -1 -59 -3 -66 -12 -45 -6 15 -12 20 -15 13 -3 -7
-11 -13 -19 -13 -8 0 -14 -7 -14 -15 0 -7 -8 -19 -17 -24 -10 -6 -15 -11 -11
-11 12 0 -36 -66 -81 -110 -22 -22 -41 -48 -42 -58 0 -11 -2 -12 -6 -4 -3 9
-14 3 -34 -17 -16 -17 -29 -35 -29 -40 0 -5 -8 -8 -17 -7 -12 1 -19 -9 -23
-28 -3 -17 -8 -29 -12 -28 -19 5 -28 1 -28 -13 0 -10 -10 -15 -30 -15 -16 0
-30 -4 -30 -10 0 -5 -5 -10 -11 -10 -14 0 -49 -39 -49 -53 0 -6 -7 -2 -16 9
-11 13 -17 15 -20 7 -3 -7 -12 -13 -20 -13 -8 0 -14 -5 -14 -11 0 -8 -6 -7
-17 2 -10 8 -14 9 -10 2 5 -7 -5 -16 -28 -24 -19 -7 -35 -18 -35 -24 0 -13 -4
-14 -65 -19 -51 -4 -85 -15 -85 -27 0 -5 -20 -9 -45 -9 -25 0 -45 -4 -45 -9 0
-5 -43 -9 -97 -9 -53 -1 -99 -4 -102 -9 -7 -10 -51 -12 -51 -3 0 4 -37 8 -82
9 -46 1 -84 6 -86 11 -2 6 -24 10 -48 10 -24 0 -44 4 -44 9 0 5 -24 12 -52 16
-66 8 -108 24 -108 40 0 8 -9 10 -24 8 -15 -3 -31 2 -44 15 -11 11 -38 23 -61
27 -23 4 -41 11 -41 16 0 5 -6 9 -13 9 -7 0 -19 9 -27 20 -8 11 -22 20 -32 20
-10 0 -18 4 -18 9 0 5 -16 15 -35 22 -22 8 -35 20 -35 30 0 10 -9 20 -19 24
-11 3 -23 15 -26 26 -4 10 -11 19 -16 19 -5 0 -9 7 -9 15 0 8 -4 14 -9 13 -10
-3 -81 59 -81 70 0 4 -14 16 -31 26 -18 11 -28 23 -25 32 3 8 -5 21 -18 30
-13 8 -27 26 -30 40 -4 13 -11 24 -16 24 -6 0 -10 9 -10 20 0 11 -4 20 -10 20
-5 0 -10 7 -10 15 0 8 -4 15 -9 15 -5 0 -8 11 -8 24 0 14 -8 32 -17 41 -9 9
-16 27 -16 41 0 13 -4 24 -10 24 -5 0 -10 9 -10 20 0 11 -4 20 -10 20 -5 0
-10 16 -10 35 0 19 -4 35 -10 35 -5 0 -10 13 -10 28 0 15 -4 32 -9 38 -20 20
-37 440 -19 470 3 5 9 36 13 69 4 33 14 73 22 89 8 16 15 44 15 62 0 24 5 35
18 39 13 4 21 20 26 51 3 24 10 44 15 44 5 0 9 12 9 26 0 14 4 23 10 19 6 -3
10 -1 10 4 0 6 -6 11 -12 12 -7 0 -3 5 10 11 12 6 22 16 22 23 0 7 9 20 20 30
11 10 20 26 20 37 0 10 7 18 15 18 9 0 15 6 14 13 -4 31 2 47 18 47 20 0 93
75 93 96 0 8 6 14 13 14 7 0 38 22 68 50 85 78 88 80 103 80 7 0 19 7 26 15 7
8 19 15 26 15 8 0 23 8 33 18 41 37 51 42 80 42 25 0 29 3 26 21 -3 17 0 20
23 18 30 -2 63 9 75 25 5 7 10 6 17 -4 9 -13 11 -13 19 -1 11 17 80 38 166 51
33 5 74 13 90 18 17 5 32 5 33 0 2 -4 19 -8 37 -8z m-6030 -201 c39 -11 108
-29 155 -40 47 -11 96 -23 110 -27 l25 -8 -5 -149 c-3 -83 -5 -262 -5 -400 l0
-250 83 4 c45 1 83 -1 83 -5 7 -54 4 -342 -4 -351 -6 -8 -35 -13 -78 -13 -43
0 -71 -4 -76 -12 -4 -7 -6 -57 -4 -111 2 -66 -1 -103 -9 -112 -10 -12 -51 -15
-221 -15 -213 0 -259 7 -259 39 0 9 7 53 16 98 25 123 44 115 -281 107 l-271
-7 -22 28 c-20 25 -22 39 -22 166 0 76 4 148 9 161 5 13 48 66 96 118 130 143
196 236 350 491 183 303 187 309 228 309 17 0 64 -9 102 -21z m3140 -13 c66
-19 144 -38 173 -42 75 -10 85 -22 77 -103 -3 -36 -8 -213 -11 -393 l-5 -328
83 3 83 2 6 -170 c3 -100 2 -175 -3 -182 -6 -7 -42 -13 -86 -15 l-77 -3 -5
-120 -5 -120 -221 -3 c-204 -2 -223 -1 -244 16 -22 18 -23 22 -11 63 6 24 13
71 14 104 l2 60 -275 -4 c-353 -5 -325 -21 -325 192 0 177 -18 138 149 329
109 124 165 207 341 499 154 255 150 249 188 249 18 0 86 -15 152 -34z m-1605
-11 c122 -30 163 -49 257 -118 126 -93 232 -257 273 -422 24 -96 27 -259 6
-355 -35 -166 -86 -259 -211 -386 -74 -75 -105 -98 -175 -133 -112 -54 -216
-75 -340 -68 -212 11 -389 113 -525 302 -90 125 -125 236 -132 416 -10 243 61
427 227 590 130 128 274 186 465 188 55 0 125 -6 155 -14z m5658 3 c29 -29 -7
-86 -47 -73 -26 8 -38 50 -21 70 15 18 51 20 68 3z m-868 -532 c0 -20 -67 -76
-90 -76 -29 0 -25 17 14 56 35 35 76 45 76 20z m-249 -176 c10 0 24 -6 31 -12
7 -7 18 -13 23 -14 31 -3 76 -18 86 -30 6 -8 16 -11 21 -8 5 3 17 -1 27 -10
10 -9 25 -14 33 -11 8 3 21 -2 29 -11 11 -13 11 -18 2 -21 -7 -3 -13 -13 -13
-24 0 -13 -7 -19 -22 -20 -17 -1 -19 -2 -5 -6 25 -6 22 -25 -24 -148 -22 -60
-50 -136 -61 -168 -11 -32 -26 -61 -32 -63 -11 -4 -189 59 -211 75 -5 4 -29
13 -52 20 -23 6 -45 16 -48 22 -4 5 9 51 28 102 19 51 50 132 68 180 34 94 36
95 94 71 18 -7 18 -6 6 9 -7 9 -19 17 -27 17 -22 0 -26 18 -8 45 12 18 20 23
27 16 6 -6 19 -11 28 -11z m229 0 c0 -5 -4 -10 -10 -10 -5 0 -10 5 -10 10 0 6
5 10 10 10 6 0 10 -4 10 -10z m-1707 -48 c24 -25 26 -33 19 -67 -11 -53 -47
-79 -96 -69 -27 5 -43 15 -57 37 -52 86 64 172 134 99z m81 -914 c8 -14 7 -21
-6 -34 -30 -30 -75 9 -48 42 16 18 39 15 54 -8z m-4950 -42 c52 -22 76 -60 76
-123 0 -97 -42 -143 -130 -143 l-50 0 0 -36 0 -35 -52 3 -53 3 0 165 c0 91 1
168 3 173 6 13 171 8 206 -7z m1325 -76 c35 -47 67 -86 71 -88 5 -2 7 37 7 85
l-2 88 48 3 47 3 0 -175 0 -176 -47 1 -48 0 -60 82 -60 82 -3 -82 -3 -83 -49
0 -50 0 0 168 c0 93 3 172 7 176 4 4 23 6 43 4 31 -3 42 -12 99 -88z m1132 63
c17 -45 7 -53 -71 -53 -68 0 -70 -1 -70 -25 0 -24 2 -25 66 -25 l65 0 -3 -37
-3 -38 -62 -3 -63 -3 0 -70 0 -70 -52 3 -52 3 -1 168 c0 93 2 171 4 173 2 2
55 4 118 4 l113 0 11 -27z m1209 -148 l0 -175 -38 0 c-21 0 -43 5 -50 12 -9 9
-15 9 -24 0 -17 -17 -79 -15 -106 4 -29 20 -52 66 -52 104 0 76 60 127 137
116 l43 -6 0 60 0 60 45 0 45 0 0 -175z m-1759 143 c35 -10 39 -15 39 -44 0
-28 4 -33 28 -36 24 -3 27 -7 27 -38 0 -31 -3 -35 -27 -38 -24 -3 -28 -8 -28
-36 0 -38 19 -59 44 -50 13 5 16 0 16 -25 0 -36 -22 -51 -76 -51 -57 0 -74 22
-74 95 0 47 -4 64 -15 69 -20 7 -19 60 1 77 10 8 14 22 11 38 -5 25 0 51 10
51 3 0 23 -5 44 -12z m-1633 -90 c10 -10 17 -10 33 1 17 10 27 10 50 1 l29
-12 0 -109 0 -109 -38 0 c-21 0 -43 5 -50 12 -9 9 -15 9 -24 0 -22 -22 -75
-14 -109 16 -35 31 -49 96 -30 144 20 51 108 87 139 56z m293 1 c15 -7 24 -7
34 1 7 6 31 10 52 8 l38 -3 -4 -115 c-5 -169 -21 -190 -138 -190 -82 0 -97 7
-87 44 5 23 10 26 28 21 54 -17 72 -16 90 4 l19 21 -55 0 c-44 0 -59 4 -76 23
-51 54 -51 122 0 169 32 29 66 35 99 17z m349 -4 c36 -18 62 -66 58 -103 -3
-26 -6 -27 -70 -30 -38 -2 -68 -7 -68 -13 0 -17 43 -27 73 -17 47 17 80 -29
38 -52 -11 -5 -44 -10 -75 -10 -48 0 -59 4 -90 33 -43 41 -53 76 -34 125 26
69 104 100 168 67z m819 1 c41 -22 61 -59 61 -112 0 -41 -5 -51 -36 -80 -30
-29 -43 -34 -84 -34 -41 0 -55 5 -85 31 -31 28 -35 36 -35 81 0 60 11 83 53
108 38 24 87 26 126 6z m952 -3 c31 -18 59 -67 59 -102 0 -36 -26 -86 -53
-104 -16 -10 -46 -17 -76 -17 -40 0 -54 5 -79 28 -57 53 -55 130 4 181 41 36
98 42 145 14z m197 -58 c3 -78 14 -100 43 -85 15 8 19 24 21 83 l3 72 45 0 45
0 0 -115 0 -115 -39 -3 c-28 -2 -42 1 -48 12 -8 15 -11 15 -31 1 -31 -21 -83
-19 -107 5 -17 17 -20 33 -20 113 0 52 3 97 7 101 4 4 23 6 43 4 l35 -3 3 -70z
m320 63 c10 -10 17 -10 32 0 31 19 69 14 95 -13 23 -22 25 -32 25 -120 l0 -95
-45 0 -45 0 0 68 c0 75 -9 96 -36 90 -16 -3 -20 -15 -24 -78 l-5 -75 -39 -3
c-24 -2 -42 2 -47 10 -5 7 -8 56 -7 109 l1 97 31 10 c43 14 50 14 64 0z m3206
-500 c-4 -7 -3 -8 5 -4 22 14 58 -3 71 -34 7 -16 16 -30 21 -30 5 0 9 -23 9
-51 0 -45 -4 -55 -34 -85 -91 -91 -214 23 -161 149 4 9 14 17 22 17 11 0 13 7
9 25 -6 23 -4 25 29 25 25 0 34 -4 29 -12z"/>
<path d="M875 5528 c-82 -136 -143 -225 -203 -296 -24 -29 -43 -55 -40 -57 2
-2 58 0 123 5 66 5 134 10 151 10 l31 0 7 88 c14 190 19 362 9 362 -5 0 -41
-51 -78 -112z"/>
<path d="M3996 5572 c-65 -113 -203 -315 -235 -346 -42 -40 -41 -60 2 -53 17
3 84 9 148 13 l117 6 5 52 c4 28 9 101 12 161 3 61 8 138 11 173 6 83 -10 81
-60 -6z"/>
<path d="M2396 5640 c-63 -25 -119 -79 -147 -144 -28 -62 -33 -209 -10 -266
40 -98 104 -156 195 -179 121 -30 246 60 290 209 69 233 -128 461 -328 380z"/>
<path d="M7180 5296 c0 -9 7 -16 16 -16 9 0 14 5 12 12 -6 18 -28 21 -28 4z"/>
<path d="M7235 5270 c3 -5 11 -10 16 -10 6 0 7 5 4 10 -3 6 -11 10 -16 10 -6
0 -7 -4 -4 -10z"/>
<path d="M7291 5261 c-10 -6 -10 -10 -1 -16 13 -8 24 -1 19 14 -3 6 -10 7 -18
2z"/>
<path d="M7342 5245 c-11 -12 -10 -15 3 -15 8 0 15 7 15 15 0 18 -2 18 -18 0z"/>
<path d="M720 4250 c0 -60 0 -60 29 -60 37 0 63 33 54 69 -9 38 -22 51 -54 51
-29 0 -29 -1 -29 -60z"/>
<path d="M4330 4185 c-15 -18 -6 -61 14 -68 17 -7 56 19 56 38 0 17 -27 45
-44 45 -8 0 -19 -7 -26 -15z"/>
<path d="M1042 4188 c-33 -33 16 -91 57 -68 39 20 21 80 -24 80 -12 0 -26 -5
-33 -12z"/>
<path d="M1360 4186 c-27 -33 18 -72 48 -42 13 13 14 20 6 34 -15 23 -38 26
-54 8z"/>
<path d="M1657 4213 c-15 -14 -6 -23 24 -23 27 0 30 2 19 15 -13 16 -32 19
-43 8z"/>
<path d="M2472 4188 c-18 -18 -15 -43 8 -63 20 -18 21 -18 42 3 19 18 20 25
10 47 -12 27 -40 33 -60 13z"/>
<path d="M3422 4188 c-18 -18 -14 -56 7 -68 27 -14 28 -13 46 14 14 20 14 28
3 45 -14 23 -38 27 -56 9z"/>
</g>
</svg>
